<?xml version="1.0" encoding="UTF-8"?>
<svg version="1.1" xmlns="http://www.w3.org/2000/svg" width="400" height="400">
<path d="M0 0 C0 1.65 0 3.3 0 5 C-0.66 5 -1.32 5 -2 5 C-2 5.66 -2 6.32 -2 7 C-2.66 7 -3.32 7 -4 7 C-4 7.66 -4 8.32 -4 9 C-4.66 9 -5.32 9 -6 9 C-6 9.66 -6 10.32 -6 11 C-6.66 11 -7.32 11 -8 11 C-8 11.66 -8 12.32 -8 13 C-8.66 13 -9.32 13 -10 13 C-10 13.66 -10 14.32 -10 15 C-10.66 15 -11.32 15 -12 15 C-12 15.66 -12 16.32 -12 17 C-12.66 17 -13.32 17 -14 17 C-14 17.66 -14 18.32 -14 19 C-14.66 19 -15.32 19 -16 19 C-16 19.66 -16 20.32 -16 21 C-16.66 21 -17.32 21 -18 21 C-18 21.66 -18 22.32 -18 23 C-18.66 23 -19.32 23 -20 23 C-20 23.66 -20 24.32 -20 25 C-20.66 25 -21.32 25 -22 25 C-22.33 25.99 -22.66 26.98 -23 28 C-24.57814789 29.55814362 -24.57814789 29.55814362 -26.58337402 31.21447754 C-30.81975554 34.81177932 -34.75316609 38.62487983 -38.66601562 42.56835938 C-39.74576912 43.65030327 -39.74576912 43.65030327 -40.84733582 44.75410461 C-42.39635107 46.30689954 -43.944211 47.8608477 -45.49101257 49.41584778 C-47.94460379 51.88230491 -50.40139468 54.3455351 -52.85900879 56.8079834 C-58.07549333 62.03584707 -63.28803725 67.26762878 -68.5 72.5 C-74.54376947 78.56743504 -80.5891785 84.63321739 -86.63883972 90.69477844 C-89.04926275 93.11164385 -91.45663357 95.53152087 -93.8638916 97.95153809 C-95.35377295 99.44505482 -96.84379649 100.93842973 -98.33398438 102.43164062 C-98.9939592 103.09678177 -99.65393402 103.76192291 -100.33390808 104.44721985 C-104.17537656 108.28911784 -108.13846133 111.92427591 -112.25020981 115.47507668 C-114.18123109 117.15794095 -116.01655447 118.90753286 -117.81396484 120.73217773 C-118.44756927 121.37231308 -119.08117371 122.01244843 -119.73397827 122.67198181 C-120.38637482 123.33581375 -121.03877136 123.99964569 -121.7109375 124.68359375 C-123.13398704 126.11926706 -124.55716777 127.55481034 -125.98046875 128.99023438 C-128.19443593 131.22918599 -130.40675244 133.4697262 -132.61669922 135.71264648 C-134.76880803 137.89477043 -136.92694199 140.07078648 -139.0859375 142.24609375 C-140.0827504 143.26309608 -140.0827504 143.26309608 -141.09970093 144.30064392 C-142.02173813 145.22774925 -142.02173813 145.22774925 -142.96240234 146.17358398 C-143.50230804 146.72094711 -144.04221375 147.26831024 -144.59848022 147.83226013 C-146 149 -146 149 -148 149 C-148 149.66 -148 150.32 -148 151 C-148.66 151 -149.32 151 -150 151 C-150 151.66 -150 152.32 -150 153 C-150.66 153 -151.32 153 -152 153 C-152 153.66 -152 154.32 -152 155 C-152.66 155 -153.32 155 -154 155 C-154 155.66 -154 156.32 -154 157 C-154.66 157 -155.32 157 -156 157 C-156 157.66 -156 158.32 -156 159 C-156.66 159 -157.32 159 -158 159 C-158 159.66 -158 160.32 -158 161 C-158.66 161 -159.32 161 -160 161 C-160 161.66 -160 162.32 -160 163 C-160.66 163 -161.32 163 -162 163 C-162 163.66 -162 164.32 -162 165 C-162.66 165 -163.32 165 -164 165 C-164 165.66 -164 166.32 -164 167 C-164.66 167 -165.32 167 -166 167 C-166 167.66 -166 168.32 -166 169 C-166.66 169 -167.32 169 -168 169 C-168 173.47766136 -167.28567465 174.17515886 -164.26530457 177.21353149 C-163.72787125 177.73345673 -163.19043793 178.25338196 -162.63671875 178.7890625 C-162.08893265 179.33356049 -161.54114655 179.87805847 -160.97676086 180.4390564 C-159.81700241 181.5883948 -158.65249288 182.73295591 -157.48364258 183.87304688 C-155.69607707 185.61663395 -153.92211807 187.37314767 -152.15039062 189.1328125 C-151.02160115 190.24817343 -149.89206802 191.36278236 -148.76171875 192.4765625 C-148.23035812 193.00053619 -147.6989975 193.52450989 -147.15153503 194.06436157 C-144.85399169 196.30296035 -142.6786425 198.21423834 -140 200 C-140 200.66 -140 201.32 -140 202 C-139.34 202 -138.68 202 -138 202 C-138 202.66 -138 203.32 -138 204 C-137.34 204 -136.68 204 -136 204 C-136 204.66 -136 205.32 -136 206 C-135.34 206 -134.68 206 -134 206 C-134 206.66 -134 207.32 -134 208 C-133.34 208 -132.68 208 -132 208 C-132 208.66 -132 209.32 -132 210 C-131.34 210 -130.68 210 -130 210 C-130 210.66 -130 211.32 -130 212 C-129.34 212 -128.68 212 -128 212 C-128 212.66 -128 213.32 -128 214 C-127.34 214 -126.68 214 -126 214 C-126 214.66 -126 215.32 -126 216 C-125.34 216 -124.68 216 -124 216 C-124 216.66 -124 217.32 -124 218 C-123.34 218 -122.68 218 -122 218 C-122 218.66 -122 219.32 -122 220 C-121.34 220 -120.68 220 -120 220 C-120 220.66 -120 221.32 -120 222 C-119.34 222 -118.68 222 -118 222 C-118 222.66 -118 223.32 -118 224 C-117.34 224 -116.68 224 -116 224 C-116 224.66 -116 225.32 -116 226 C-115.34 226 -114.68 226 -114 226 C-114 226.66 -114 227.32 -114 228 C-113.34 228 -112.68 228 -112 228 C-112 228.66 -112 229.32 -112 230 C-111.34 230 -110.68 230 -110 230 C-110 230.66 -110 231.32 -110 232 C-109.34 232 -108.68 232 -108 232 C-108 232.66 -108 233.32 -108 234 C-107.34 234 -106.68 234 -106 234 C-106 234.66 -106 235.32 -106 236 C-105.34 236 -104.68 236 -104 236 C-104 236.66 -104 237.32 -104 238 C-103.34 238 -102.68 238 -102 238 C-102 238.66 -102 239.32 -102 240 C-101.34 240 -100.68 240 -100 240 C-100 240.66 -100 241.32 -100 242 C-99.34 242 -98.68 242 -98 242 C-98 242.66 -98 243.32 -98 244 C-97.34 244 -96.68 244 -96 244 C-96 244.66 -96 245.32 -96 246 C-95.34 246 -94.68 246 -94 246 C-94 246.66 -94 247.32 -94 248 C-93.34 248 -92.68 248 -92 248 C-92 248.66 -92 249.32 -92 250 C-91.34 250 -90.68 250 -90 250 C-90 250.66 -90 251.32 -90 252 C-89.34 252 -88.68 252 -88 252 C-88 252.66 -88 253.32 -88 254 C-87.34 254 -86.68 254 -86 254 C-86 254.66 -86 255.32 -86 256 C-85.34 256 -84.68 256 -84 256 C-84 256.66 -84 257.32 -84 258 C-83.34 258 -82.68 258 -82 258 C-82 258.66 -82 259.32 -82 260 C-81.34 260 -80.68 260 -80 260 C-80 260.66 -80 261.32 -80 262 C-79.34 262 -78.68 262 -78 262 C-78 262.66 -78 263.32 -78 264 C-77.34 264 -76.68 264 -76 264 C-76 264.66 -76 265.32 -76 266 C-75.46857391 266.20512711 -74.93714783 266.41025421 -74.38961792 266.62159729 C-71.0049466 268.5739764 -68.47915814 271.28519768 -65.76611328 274.05444336 C-65.15093842 274.67414505 -64.53576355 275.29384674 -63.90194702 275.93232727 C-62.56841164 277.27681029 -61.23715887 278.62356032 -59.90793228 279.97230339 C-57.80232487 282.10808918 -55.69009612 284.23711578 -53.57589722 286.36439514 C-47.56660725 292.41342297 -41.57005172 298.47501892 -35.57666016 304.53979492 C-31.9084959 308.25071878 -28.23301482 311.95426956 -24.55315781 315.65359688 C-23.15403718 317.06327246 -21.7578386 318.47585455 -20.36465836 319.89140129 C-18.41412785 321.87319329 -16.45449077 323.84554924 -14.49267578 325.81616211 C-13.92208435 326.40068146 -13.35149292 326.98520081 -12.76361084 327.58743286 C-9.43759985 330.90585898 -6.38409424 333.11821804 -2 335 C2.9834079 330.86529066 7.62850847 326.44626298 12.1796875 321.84765625 C12.72264465 321.29919037 13.26560181 320.75072449 13.82501221 320.18563843 C16.08975665 317.89315988 18.35065745 315.59696585 20.60742188 313.29663086 C22.2730413 311.60099814 23.94467587 309.91148699 25.6171875 308.22265625 C26.12861298 307.69777115 26.64003845 307.17288605 27.16696167 306.63209534 C28.40717829 305.38304841 29.69933895 304.18597483 31 303 C31.66 303 32.32 303 33 303 C33 302.34 33 301.68 33 301 C31.80181641 301.37705078 30.60363281 301.75410156 29.36914062 302.14257812 C13.81476954 306.54213938 -4.15384274 308.6543495 -19 301 C-33.85346219 291.51482459 -46.18566974 277.81041958 -58.25 265.125 C-59.06644989 264.26810577 -59.88289978 263.41121155 -60.72409058 262.52835083 C-69.0409508 253.76999493 -77.22461505 244.89330256 -85.21582031 235.83642578 C-85.80748741 235.17038582 -86.39915451 234.50434586 -87.00875092 233.81812286 C-91 229.23989029 -91 229.23989029 -91 227 C-91.66 227 -92.32 227 -93 227 C-93 226.34 -93 225.68 -93 225 C-93.66 225 -94.32 225 -95 225 C-95 224.34 -95 223.68 -95 223 C-95.66 223 -96.32 223 -97 223 C-97 222.34 -97 221.68 -97 221 C-97.66 221 -98.32 221 -99 221 C-99 220.34 -99 219.68 -99 219 C-99.66 219 -100.32 219 -101 219 C-101 218.34 -101 217.68 -101 217 C-101.66 217 -102.32 217 -103 217 C-103 216.34 -103 215.68 -103 215 C-103.66 215 -104.32 215 -105 215 C-105 214.34 -105 213.68 -105 213 C-105.66 213 -106.32 213 -107 213 C-107 212.34 -107 211.68 -107 211 C-107.66 211 -108.32 211 -109 211 C-109 210.34 -109 209.68 -109 209 C-109.66 209 -110.32 209 -111 209 C-111 208.34 -111 207.68 -111 207 C-111.66 207 -112.32 207 -113 207 C-113 206.34 -113 205.68 -113 205 C-113.66 205 -114.32 205 -115 205 C-115 204.34 -115 203.68 -115 203 C-115.66 203 -116.32 203 -117 203 C-117 202.34 -117 201.68 -117 201 C-117.66 201 -118.32 201 -119 201 C-119 200.34 -119 199.68 -119 199 C-119.66 199 -120.32 199 -121 199 C-121 198.34 -121 197.68 -121 197 C-121.66 197 -122.32 197 -123 197 C-123 196.34 -123 195.68 -123 195 C-123.66 195 -124.32 195 -125 195 C-125 194.34 -125 193.68 -125 193 C-125.66 193 -126.32 193 -127 193 C-127 192.34 -127 191.68 -127 191 C-127.66 191 -128.32 191 -129 191 C-129 190.34 -129 189.68 -129 189 C-129.66 189 -130.32 189 -131 189 C-131 188.34 -131 187.68 -131 187 C-131.66 187 -132.32 187 -133 187 C-133 186.34 -133 185.68 -133 185 C-133.66 185 -134.32 185 -135 185 C-135 184.34 -135 183.68 -135 183 C-135.66 183 -136.32 183 -137 183 C-137 182.34 -137 181.68 -137 181 C-137.66 181 -138.32 181 -139 181 C-139 180.34 -139 179.68 -139 179 C-139.66 179 -140.32 179 -141 179 C-141 178.34 -141 177.68 -141 177 C-141.66 177 -142.32 177 -143 177 C-143 176.34 -143 175.68 -143 175 C-143.99 174.67 -144.98 174.34 -146 174 C-145.52892826 169.32340434 -143.81492389 167.31788158 -140.5297699 164.04202271 C-140.06086793 163.56899747 -139.59196595 163.09597223 -139.10885483 162.6086129 C-137.53692426 161.02776054 -135.9511269 159.46160821 -134.36499023 157.89501953 C-133.23412792 156.76364836 -132.10413914 155.63140347 -130.97496033 154.49835205 C-127.90507104 151.42303898 -124.82290369 148.36030501 -121.73828387 145.29977655 C-118.50803431 142.09083009 -115.2887374 138.870932 -112.06813049 135.65231323 C-106.6531787 130.24381257 -101.23088282 124.84276884 -95.8034668 119.44677734 C-88.85303129 112.53653365 -81.91398687 105.61497263 -74.97880459 98.68942451 C-69.00313765 92.72208793 -63.02302767 86.75920978 -57.04179502 80.79745245 C-55.76171235 79.52140945 -54.48177879 78.24521686 -53.20199466 76.96887445 C-49.54724703 73.32397222 -45.89014089 69.68147162 -42.22913551 66.04285431 C-41.12383986 64.94363337 -40.01934085 63.84361066 -38.91573334 62.74269485 C-33.66245216 57.5034162 -28.4032525 52.31728046 -22.73489475 47.52236748 C-20.90171283 45.97242884 -20.90171283 45.97242884 -19.0906105 43.89052868 C-10.53718899 36.15571215 10.32402551 37.96199402 21.33760929 38.31811047 C50.85907309 39.87708371 69.22416252 62.43210274 87.88689995 83.10022926 C89.59670336 85.00252146 91.30323269 86.9076729 93.00774395 88.81470811 C98.7909975 95.27289103 104.74801749 101.55991314 110.72359121 107.83972466 C118.02706906 115.51732854 125.30579386 123.21516742 132.44560242 131.04554749 C132.94660481 131.59471514 133.4476072 132.14388279 133.96379149 132.70969188 C136.29436497 135.26728297 138.61791884 137.83062652 140.93313599 140.40216064 C145.68684799 145.64360701 150.55078551 150.48521934 156 155 C166.47732913 163.80645043 166.47732913 163.80645043 167.734375 169.08203125 C167.75334243 172.70006856 167.63070038 175.73859925 166 179 C165.34 179 164.68 179 164 179 C164 179.66 164 180.32 164 181 C163.34 181 162.68 181 162 181 C162 181.66 162 182.32 162 183 C161.34 183 160.68 183 160 183 C160 183.66 160 184.32 160 185 C159.34 185 158.68 185 158 185 C158 185.66 158 186.32 158 187 C157.34 187 156.68 187 156 187 C156 187.66 156 188.32 156 189 C155.34 189 154.68 189 154 189 C154 189.66 154 190.32 154 191 C153.34 191 152.68 191 152 191 C152 191.66 152 192.32 152 193 C151.34 193 150.68 193 150 193 C150 193.66 150 194.32 150 195 C149.34 195 148.68 195 148 195 C148 195.66 148 196.32 148 197 C147.34 197 146.68 197 146 197 C146 197.66 146 198.32 146 199 C145.34 199 144.68 199 144 199 C144 199.66 144 200.32 144 201 C143.34 201 142.68 201 142 201 C142 201.66 142 202.32 142 203 C141.34 203 140.68 203 140 203 C139.67 203.99 139.34 204.98 139 206 C137.544487 207.43550873 137.544487 207.43550873 135.63464355 208.99645996 C130.07608485 213.7184683 124.98515812 218.89061316 119.84570312 224.05664062 C118.74444105 225.15982563 117.6429483 226.26278041 116.54124451 227.36552429 C114.18323338 229.72667847 111.82678047 232.08937263 109.47154236 234.45329285 C105.7413375 238.19710593 102.00724463 241.93702511 98.27258301 245.6763916 C90.34541285 253.6146266 82.4224839 261.55708845 74.5 269.5 C65.94481713 278.0772419 57.3888949 286.65373847 48.82806921 295.22534895 C45.12159115 298.93678584 41.41755956 302.65064145 37.71543121 306.36641693 C35.40583579 308.68351217 33.09413401 310.99849734 30.78187752 313.31293678 C29.71682467 314.37984934 28.65263029 315.44761972 27.58939934 316.51634789 C22.43509949 321.69643851 17.23717789 326.74615528 11.67726517 331.49361801 C9.34538245 333.58792379 7.3822528 335.96297565 5.34619141 338.34130859 C0.51362574 343.195956 -3.1168973 344.24421644 -9.87051392 344.54336548 C-11.08113495 344.5419455 -12.29175598 344.54052551 -13.5390625 344.5390625 C-14.81872894 344.5628598 -16.09839539 344.5866571 -17.4168396 344.61117554 C-20.11566425 344.65274554 -22.81123491 344.65570577 -25.51025391 344.63330078 C-28.24732613 344.61462601 -30.9722447 344.65586683 -33.70751953 344.75634766 C-57.42532302 345.62041938 -57.42532302 345.62041938 -65.35839844 339.39355469 C-68.86502654 336.11990058 -71.89617842 332.5794984 -74.67269897 328.67001343 C-76.0780712 326.72677904 -76.0780712 326.72677904 -79 325 C-79 324.34 -79 323.68 -79 323 C-79.66 323 -80.32 323 -81 323 C-81 322.34 -81 321.68 -81 321 C-81.66 321 -82.32 321 -83 321 C-83 320.34 -83 319.68 -83 319 C-83.66 319 -84.32 319 -85 319 C-85 318.34 -85 317.68 -85 317 C-85.66 317 -86.32 317 -87 317 C-87 316.34 -87 315.68 -87 315 C-87.66 315 -88.32 315 -89 315 C-89 314.34 -89 313.68 -89 313 C-89.66 313 -90.32 313 -91 313 C-91 312.34 -91 311.68 -91 311 C-91.66 311 -92.32 311 -93 311 C-93 310.34 -93 309.68 -93 309 C-93.66 309 -94.32 309 -95 309 C-95 308.34 -95 307.68 -95 307 C-95.66 307 -96.32 307 -97 307 C-97 306.34 -97 305.68 -97 305 C-97.66 305 -98.32 305 -99 305 C-99 304.34 -99 303.68 -99 303 C-99.66 303 -100.32 303 -101 303 C-101 302.34 -101 301.68 -101 301 C-101.66 301 -102.32 301 -103 301 C-103 300.34 -103 299.68 -103 299 C-103.55848633 298.76821045 -104.11697266 298.5364209 -104.69238281 298.29760742 C-107.60499328 296.65980329 -109.58190794 294.62461285 -111.921875 292.23828125 C-112.61739471 291.53495918 -112.61739471 291.53495918 -113.32696533 290.81742859 C-114.80617025 289.32048402 -116.27852701 287.81704251 -117.75 286.3125 C-119.20797061 284.82662216 -120.66747816 283.34234309 -122.13018799 281.86112976 C-123.46876681 280.50491833 -124.80241101 279.14384157 -126.13574219 277.7824707 C-128.28503433 275.69455027 -130.44136563 273.73527743 -132.71069336 271.78710938 C-137.74228119 267.42469632 -142.39711856 262.70906979 -147.08203125 257.98046875 C-148.02718439 257.03089865 -148.97264 256.08162952 -149.91838074 255.13264465 C-152.88594787 252.15376843 -155.84950569 249.17092378 -158.8125 246.1875 C-161.79335158 243.18622834 -164.77481329 240.18558071 -167.76017761 237.188797 C-169.61222275 235.32922082 -171.46200183 233.46738444 -173.3092804 231.60307312 C-174.1441246 230.76492569 -174.97896881 229.92677826 -175.83911133 229.06323242 C-176.93875969 227.95572884 -176.93875969 227.95572884 -178.06062317 226.82585144 C-180.06815238 224.83433314 -180.06815238 224.83433314 -183 223 C-183 222.34 -183 221.68 -183 221 C-183.66 221 -184.32 221 -185 221 C-185 220.34 -185 219.68 -185 219 C-185.66 219 -186.32 219 -187 219 C-187 218.34 -187 217.68 -187 217 C-187.66 217 -188.32 217 -189 217 C-189 216.34 -189 215.68 -189 215 C-189.66 215 -190.32 215 -191 215 C-191 214.34 -191 213.68 -191 213 C-191.66 213 -192.32 213 -193 213 C-193 212.34 -193 211.68 -193 211 C-193.66 211 -194.32 211 -195 211 C-195 210.34 -195 209.68 -195 209 C-195.66 209 -196.32 209 -197 209 C-197 208.34 -197 207.68 -197 207 C-197.66 207 -198.32 207 -199 207 C-199 206.34 -199 205.68 -199 205 C-199.66 205 -200.32 205 -201 205 C-201 204.34 -201 203.68 -201 203 C-201.66 203 -202.32 203 -203 203 C-203 202.34 -203 201.68 -203 201 C-203.66 201 -204.32 201 -205 201 C-205 200.34 -205 199.68 -205 199 C-205.66 199 -206.32 199 -207 199 C-207 198.34 -207 197.68 -207 197 C-207.56170898 196.76063721 -208.12341797 196.52127441 -208.70214844 196.2746582 C-213.58421266 193.56649232 -217.31795054 189.09476764 -221.25 185.1875 C-222.65378906 183.83301758 -222.65378906 183.83301758 -224.0859375 182.45117188 C-224.97023437 181.57396484 -225.85453125 180.69675781 -226.765625 179.79296875 C-227.57805664 178.9939917 -228.39048828 178.19501465 -229.22753906 177.37182617 C-231.26935467 174.6395619 -231.40051996 173.3301535 -231 170 C-230.34 170 -229.68 170 -229 170 C-228.77108157 169.44590328 -228.54216314 168.89180656 -228.30630779 168.32091904 C-226.62782874 165.33876275 -224.52472909 163.28251252 -222.09907532 160.86529541 C-221.59594494 160.36116174 -221.09281455 159.85702808 -220.5744378 159.33761764 C-218.88807518 157.65030279 -217.19467045 155.97023866 -215.5012207 154.29003906 C-214.29018733 153.08120714 -213.07960156 151.87192667 -211.86943054 150.66223145 C-209.2619246 148.0576596 -206.65129185 145.45627726 -204.03820229 142.85730743 C-199.90185821 138.74323965 -195.77262273 134.62208652 -191.64433289 130.49993896 C-185.10810714 123.9750996 -178.56722947 117.45494656 -172.02431315 110.93681693 C-160.32324695 99.28001329 -148.62764865 87.61773035 -136.93736523 75.95011306 C-132.83743476 71.85856238 -128.73471232 67.76983841 -124.62968314 63.68340349 C-122.06789063 61.1323073 -119.50817158 58.57913795 -116.948946 56.02546692 C-115.7675562 54.84752734 -114.58529665 53.67045928 -113.40207291 52.49436188 C-105.56437075 44.70279946 -98.01520059 36.94368756 -91.6063385 27.91030884 C-66.85681374 -6.13483613 -38.39005201 -4.1333633 0 0 Z M-42.80367565 4.69881439 C-52.95554213 4.27812092 -60.04186645 5.3299061 -67.7134552 12.30163574 C-70.68285084 15.13812487 -73.51511051 18.08762518 -76.34692383 21.06054688 C-77.95162033 22.66925546 -79.56074376 24.2735583 -81.17388916 25.87379456 C-85.50982073 30.19977882 -89.78155962 34.58437693 -94.04371476 38.98290443 C-98.52006904 43.58116155 -103.05330475 48.12265724 -107.58049011 52.67077637 C-115.16181925 60.30250391 -122.70674475 67.968194 -130.2253418 75.66162109 C-137.96274965 83.57876333 -145.72257173 91.47284585 -153.51245117 99.33837891 C-153.99381426 99.82443106 -154.47517734 100.31048321 -154.97112719 100.81126422 C-156.90611519 102.76491061 -158.84127566 104.71838594 -160.77666186 106.67163786 C-175.56757652 121.59927274 -190.3353134 136.54984015 -205.04072571 151.56175041 C-206.58314134 153.13599052 -208.12636548 154.70943889 -209.67043114 156.28206062 C-211.76723538 158.41835256 -213.86075721 160.55780267 -215.95320129 162.69836426 C-216.57310135 163.32899387 -217.19300141 163.95962348 -217.83168632 164.60936308 C-220.66964849 166.94506257 -220.66964849 166.94506257 -222 170 C-206.49 170 -190.98 170 -175 170 C-175 169.34 -175 168.68 -175 168 C-174.34 168 -173.68 168 -173 168 C-173 167.34 -173 166.68 -173 166 C-172.34 166 -171.68 166 -171 166 C-171 165.34 -171 164.68 -171 164 C-170.34 164 -169.68 164 -169 164 C-169 163.34 -169 162.68 -169 162 C-168.34 162 -167.68 162 -167 162 C-167 161.34 -167 160.68 -167 160 C-166.34 160 -165.68 160 -165 160 C-165 159.34 -165 158.68 -165 158 C-164.34 158 -163.68 158 -163 158 C-163 157.34 -163 156.68 -163 156 C-162.34 156 -161.68 156 -161 156 C-161 155.34 -161 154.68 -161 154 C-160.34 154 -159.68 154 -159 154 C-159 153.34 -159 152.68 -159 152 C-158.34 152 -157.68 152 -157 152 C-155.27193786 150.37293668 -153.63748427 148.71508482 -152 147 C-150.8457055 145.83829068 -149.68861116 144.67935933 -148.52934265 143.52261353 C-147.18320628 142.17345263 -145.83708174 140.82427993 -144.4909668 139.47509766 C-136.95790318 131.92565804 -129.42226246 124.37879606 -121.88518047 116.8333683 C-117.3310595 112.27402605 -112.77787883 107.71375285 -108.22680664 103.15136719 C-103.81419211 98.72785701 -99.39911177 94.30682162 -94.98233986 89.88746262 C-93.30503717 88.20831982 -91.62861125 86.52830071 -89.9531002 84.84737015 C-87.60348489 82.49045403 -85.25071582 80.1367286 -82.8972168 77.78369141 C-82.21382736 77.0967067 -81.53043793 76.40972198 -80.82633972 75.70191956 C-76.93000795 71.813807 -72.919134 68.12461939 -68.75286198 64.52757454 C-66.75875486 62.78976101 -64.86421981 60.97867999 -63.00244141 59.10009766 C-62.32879547 58.4231485 -61.65514954 57.74619934 -60.96109009 57.04873657 C-60.26494598 56.34429413 -59.56880188 55.63985168 -58.8515625 54.9140625 C-58.1129599 54.17167328 -57.3743573 53.42928406 -56.6133728 52.66439819 C-54.28144722 50.32036882 -51.95282743 47.97309879 -49.625 45.625 C-46.53670378 42.51017311 -43.44514948 39.39863372 -40.3515625 36.2890625 C-39.64327301 35.57247467 -38.93498352 34.85588684 -38.20523071 34.11758423 C-37.55049774 33.45954803 -36.89576477 32.80151184 -36.22119141 32.12353516 C-35.35803818 31.2525267 -35.35803818 31.2525267 -34.47744751 30.36392212 C-33 29 -33 29 -31 28 C-31 27.34 -31 26.68 -31 26 C-30.34 26 -29.68 26 -29 26 C-29 25.34 -29 24.68 -29 24 C-28.34 24 -27.68 24 -27 24 C-27 23.34 -27 22.68 -27 22 C-26.34 22 -25.68 22 -25 22 C-25 21.34 -25 20.68 -25 20 C-24.34 20 -23.68 20 -23 20 C-23 19.34 -23 18.68 -23 18 C-22.34 18 -21.68 18 -21 18 C-21 17.34 -21 16.68 -21 16 C-20.34 16 -19.68 16 -19 16 C-19 15.34 -19 14.68 -19 14 C-18.34 14 -17.68 14 -17 14 C-17 13.34 -17 12.68 -17 12 C-16.34 12 -15.68 12 -15 12 C-15 11.34 -15 10.68 -15 10 C-14.34 10 -13.68 10 -13 10 C-13 9.34 -13 8.68 -13 8 C-12.34 8 -11.68 8 -11 8 C-11 7.34 -11 6.68 -11 6 C-10.34 5.67 -9.68 5.34 -9 5 C-13.39581802 4.97004632 -17.79160881 4.95289332 -22.1875 4.9375 C-23.39470703 4.92912109 -24.60191406 4.92074219 -25.84570312 4.91210938 C-28.36936846 4.9055544 -30.89326018 4.92782828 -33.41644001 4.97776031 C-36.56611324 5.02671666 -39.66112796 4.90564736 -42.80367565 4.69881439 Z M4.73486328 47.98535156 C1.65521926 47.97680886 -1.42078475 48.01426494 -4.5 48.0625 C-5.43529541 48.0514624 -6.37059082 48.0404248 -7.33422852 48.02905273 C-19.11214273 48.32864483 -26.34790167 59.21753307 -34.15748596 67.08232117 C-36.00615875 68.94392032 -37.85807961 70.80223504 -39.71081543 72.65979004 C-43.6433811 76.60370565 -47.57198899 80.55154876 -51.5 84.5 C-56.05683783 89.08055029 -60.61534407 93.65941449 -65.17811584 98.23405457 C-66.99025805 100.05261291 -68.79932843 101.87418796 -70.60827637 103.69592285 C-75.59866078 108.70830932 -80.6060348 113.62681992 -85.99060059 118.21990967 C-90.53969102 122.24986601 -94.77129904 126.62860491 -99.0625 130.9296875 C-100.10467206 131.97118459 -101.1469924 133.0125333 -102.18945312 134.05374146 C-104.35595505 136.21878007 -106.52066512 138.38558974 -108.68408203 140.55371094 C-111.4627209 143.33809652 -114.24589323 146.11790093 -117.03038025 148.89643669 C-119.17506138 151.03751762 -121.31737176 153.1809578 -123.45895386 155.32513809 C-124.48532648 156.35217892 -125.51244554 157.37847434 -126.54031372 158.4040184 C-127.96678733 159.82796906 -129.3897397 161.25544461 -130.8125 162.68310547 C-131.62332031 163.49472137 -132.43414062 164.30633728 -133.26953125 165.14254761 C-135.11360901 166.69884046 -135.11360901 166.69884046 -135 168 C-130.77084933 168.03000052 -126.54172708 168.04712099 -122.3125 168.0625 C-121.15298828 168.07087891 -119.99347656 168.07925781 -118.79882812 168.08789062 C-116.35635944 168.0944741 -113.91360693 168.06803407 -111.47180176 168.01072693 C-108.38224239 167.95943267 -105.38453044 168.12540072 -102.30834961 168.40480042 C-92.77864612 168.985162 -85.96679616 167.97428987 -78.55207825 161.66427517 C-74.22560179 157.59158578 -70.14155706 153.3214595 -66.07421875 148.9921875 C-64.2670387 147.14507111 -62.45524553 145.30245802 -60.63911438 143.46414185 C-56.37883538 139.13063297 -52.16560206 134.75607415 -47.97317964 130.35701859 C-42.75342944 124.88502827 -37.46805722 119.47778441 -32.18164062 114.0703125 C-26.77684329 108.53846356 -21.37890748 103.00075619 -16.02238464 97.42208862 C-15.20603043 96.57308487 -14.38967621 95.72408112 -13.54858398 94.84934998 C-12.03934491 93.27799211 -10.53269928 91.70413674 -9.02937317 90.12712097 C-5.11115943 86.05005759 -1.0859829 82.21130209 3.21785355 78.54204369 C6.08040432 76.06515502 8.7551466 73.40713707 11.43359375 70.734375 C11.99699966 70.17429749 12.56040558 69.61421997 13.1408844 69.03717041 C14.31421063 67.86885138 15.48623829 66.6992268 16.65698242 65.52832031 C18.45278532 63.73473354 20.25648362 61.94933597 22.06054688 60.1640625 C23.20621675 59.02132196 24.35141661 57.87810996 25.49609375 56.734375 C26.03455429 56.20309998 26.57301483 55.67182495 27.12779236 55.12445068 C29.47866831 52.7589525 30.92986014 51.21041957 32 48 C25.13600941 47.94074122 18.27377526 47.93845197 11.40966797 47.98339844 C9.18475935 47.99423145 6.95977588 47.99533323 4.73486328 47.98535156 Z M38.64990902 50.22983646 C37.78195627 51.10112013 37.78195627 51.10112013 36.89646912 51.99000549 C36.23352341 52.6530217 35.5705777 53.3160379 34.88754272 53.99914551 C34.15564728 54.73620728 33.42375183 55.47326904 32.66967773 56.23266602 C31.90209641 57.00170761 31.13451508 57.77074921 30.34367371 58.56309509 C28.6690519 60.24153566 26.99558664 61.92113071 25.32311821 63.601717 C22.67258474 66.26496808 20.01898031 68.92512334 17.36451721 71.5844574 C11.24152794 77.71988324 5.12311642 83.85986376 -0.99497223 90.00017548 C-7.0293013 96.05634716 -13.06561585 102.11052626 -19.10536003 108.16129875 C-21.71297367 110.77537227 -24.31754156 113.39245452 -26.92201233 116.00965881 C-28.53583035 117.62711285 -30.1497909 119.2444247 -31.76391602 120.86157227 C-32.48164185 121.58446442 -33.19936768 122.30735657 -33.93884277 123.05215454 C-37.91351818 127.02724038 -41.99492006 130.80691768 -46.25149441 134.47831821 C-48.285811 136.24873435 -50.21784425 138.09732162 -52.12109375 140.00756836 C-52.82121582 140.70776596 -53.52133789 141.40796356 -54.24267578 142.12937927 C-54.96696777 142.85883255 -55.69125977 143.58828583 -56.4375 144.33984375 C-57.58581299 145.49027916 -57.58581299 145.49027916 -58.75732422 146.66395569 C-61.17393197 149.08610881 -63.58701726 151.51173612 -66 153.9375 C-67.64950686 155.59202893 -69.29924429 157.24632802 -70.94921875 158.90039062 C-74.96881371 162.93094202 -78.98553169 166.96434272 -83 171 C-82.67 171.99 -82.34 172.98 -82 174 C-81.34 174 -80.68 174 -80 174 C-80 174.66 -80 175.32 -80 176 C-79.34 176 -78.68 176 -78 176 C-78 176.66 -78 177.32 -78 178 C-77.34 178 -76.68 178 -76 178 C-76 178.66 -76 179.32 -76 180 C-75.34 180 -74.68 180 -74 180 C-74 180.66 -74 181.32 -74 182 C-73.34 182 -72.68 182 -72 182 C-72 182.66 -72 183.32 -72 184 C-71.34 184 -70.68 184 -70 184 C-70 184.66 -70 185.32 -70 186 C-69.34 186 -68.68 186 -68 186 C-68 186.66 -68 187.32 -68 188 C-67.34 188 -66.68 188 -66 188 C-66 188.66 -66 189.32 -66 190 C-65.34 190 -64.68 190 -64 190 C-64 190.66 -64 191.32 -64 192 C-63.34 192 -62.68 192 -62 192 C-62 192.66 -62 193.32 -62 194 C-61.34 194 -60.68 194 -60 194 C-60 194.66 -60 195.32 -60 196 C-59.34 196 -58.68 196 -58 196 C-58 196.66 -58 197.32 -58 198 C-57.34 198 -56.68 198 -56 198 C-56 198.66 -56 199.32 -56 200 C-55.34 200 -54.68 200 -54 200 C-54 200.66 -54 201.32 -54 202 C-53.34 202 -52.68 202 -52 202 C-52 202.66 -52 203.32 -52 204 C-51.34 204 -50.68 204 -50 204 C-50 204.66 -50 205.32 -50 206 C-49.34 206 -48.68 206 -48 206 C-48 206.66 -48 207.32 -48 208 C-47.34 208 -46.68 208 -46 208 C-46 208.66 -46 209.32 -46 210 C-45.34 210 -44.68 210 -44 210 C-44 210.66 -44 211.32 -44 212 C-43.34 212 -42.68 212 -42 212 C-42 212.66 -42 213.32 -42 214 C-41.34 214 -40.68 214 -40 214 C-40 214.66 -40 215.32 -40 216 C-39.34 216 -38.68 216 -38 216 C-38 216.66 -38 217.32 -38 218 C-37.34 218 -36.68 218 -36 218 C-36 218.66 -36 219.32 -36 220 C-35.34 220 -34.68 220 -34 220 C-34 220.66 -34 221.32 -34 222 C-33.34 222 -32.68 222 -32 222 C-32 222.66 -32 223.32 -32 224 C-31.34 224 -30.68 224 -30 224 C-30 224.66 -30 225.32 -30 226 C-29.34 226 -28.68 226 -28 226 C-28 226.66 -28 227.32 -28 228 C-27.34 228 -26.68 228 -26 228 C-26 228.66 -26 229.32 -26 230 C-25.34 230 -24.68 230 -24 230 C-24 230.66 -24 231.32 -24 232 C-23.34 232 -22.68 232 -22 232 C-22 232.66 -22 233.32 -22 234 C-21.34 234 -20.68 234 -20 234 C-20 234.66 -20 235.32 -20 236 C-19.34 236 -18.68 236 -18 236 C-18 236.66 -18 237.32 -18 238 C-17.34 238 -16.68 238 -16 238 C-16 238.66 -16 239.32 -16 240 C-15.34 240 -14.68 240 -14 240 C-14 240.66 -14 241.32 -14 242 C-13.34 242 -12.68 242 -12 242 C-12 242.66 -12 243.32 -12 244 C-11.34 244 -10.68 244 -10 244 C-10 244.66 -10 245.32 -10 246 C-8.92480948 247.14337333 -7.83547548 248.27481729 -6.70367432 249.36218262 C-4.64243984 251.34373838 -2.63507984 253.37427234 -0.62451172 255.40722656 C3.47423716 259.53782264 7.57727412 263.66412359 11.6835804 267.78720474 C14.15970507 270.27381599 16.63390056 272.76228898 19.10400391 275.25488281 C21.96226116 278.13898243 24.82853602 281.01499315 27.6953125 283.890625 C28.5828421 284.78847717 29.4703717 285.68632935 30.38479614 286.61138916 C31.20930267 287.43604675 32.0338092 288.26070435 32.88330078 289.11035156 C33.60768341 289.83917542 34.33206604 290.56799927 35.07839966 291.31890869 C36.99298463 293.21246303 36.99298463 293.21246303 40 294 C41.82031893 292.89884703 41.82031893 292.89884703 43.59375 291.15625 C44.29886719 290.5065625 45.00398437 289.856875 45.73046875 289.1875 C49.71285433 285.34905606 53.62027806 281.44199677 57.5 277.5 C62.66744764 272.24960778 67.83715622 267.12749843 73.48632812 262.39257812 C75.12095957 261.05428739 75.12095957 261.05428739 76 259 C58.51 259 41.02 259 23 259 C23 258.34 23 257.68 23 257 C22.34 257 21.68 257 21 257 C21 256.34 21 255.68 21 255 C20.34 255 19.68 255 19 255 C19 254.34 19 253.68 19 253 C18.34 253 17.68 253 17 253 C17 252.34 17 251.68 17 251 C16.34 251 15.68 251 15 251 C15 250.34 15 249.68 15 249 C14.34 249 13.68 249 13 249 C13 248.34 13 247.68 13 247 C12.34 247 11.68 247 11 247 C11 246.34 11 245.68 11 245 C10.34 245 9.68 245 9 245 C9 244.34 9 243.68 9 243 C8.34 243 7.68 243 7 243 C7 242.34 7 241.68 7 241 C6.34 241 5.68 241 5 241 C5 240.34 5 239.68 5 239 C4.34 239 3.68 239 3 239 C3 238.34 3 237.68 3 237 C2.34 237 1.68 237 1 237 C1 236.34 1 235.68 1 235 C0.34 235 -0.32 235 -1 235 C-1 234.34 -1 233.68 -1 233 C-1.66 233 -2.32 233 -3 233 C-3 232.34 -3 231.68 -3 231 C-3.66 231 -4.32 231 -5 231 C-5 230.34 -5 229.68 -5 229 C-5.66 229 -6.32 229 -7 229 C-7 228.34 -7 227.68 -7 227 C-7.66 227 -8.32 227 -9 227 C-9 226.34 -9 225.68 -9 225 C-10.43433787 223.53867863 -10.43433787 223.53867863 -12.34741211 222.01049805 C-20.82656944 214.79392921 -28.56488618 206.73950508 -36.45727539 198.89282227 C-38.53670303 196.82684893 -40.62321299 194.7684368 -42.71606445 192.71606445 C-45.25857306 190.22269282 -47.78875469 187.71743488 -50.31037712 185.20294762 C-51.73549417 183.78781434 -53.17268667 182.38487548 -54.61000061 180.98213196 C-55.46516769 180.12411484 -56.32033478 179.26609772 -57.20141602 178.38208008 C-57.96116226 177.63042068 -58.72090851 176.87876129 -59.50367737 176.10432434 C-61 174 -61 174 -60.77889729 172.09743309 C-59.87648344 169.66739167 -58.76555755 168.26327868 -57.03396606 166.33674622 C-56.39950562 165.62590378 -55.76504517 164.91506134 -55.11135864 164.18267822 C-54.40961517 163.41316833 -53.7078717 162.64365845 -52.98486328 161.85083008 C-52.24733826 161.03255234 -51.50981323 160.2142746 -50.74993896 159.37120056 C-43.85120053 151.76088629 -36.80253173 144.28997903 -29.70356941 136.86656666 C-24.95132813 131.89191163 -20.25653404 126.88266424 -15.68115234 121.74438477 C17.45658917 84.61327874 17.45658917 84.61327874 41.77907753 82.91574764 C52.9114076 82.53730811 63.99124223 83.35865386 75 85 C73.19764173 81.83420137 71.40838427 79.15867211 68.82958984 76.58666992 C67.9038063 75.65627144 67.9038063 75.65627144 66.95932007 74.70707703 C66.29985382 74.0547963 65.64038757 73.40251556 64.9609375 72.73046875 C64.27947662 72.04946609 63.59801575 71.36846344 62.89590454 70.66682434 C61.46096588 69.23489719 60.02360714 67.80539161 58.58398438 66.37817383 C56.37047622 64.18301371 54.16516618 61.97986455 51.9609375 59.77539062 C50.56557692 58.38494209 49.1697596 56.99495171 47.7734375 55.60546875 C46.77816544 54.61186592 46.77816544 54.61186592 45.76278687 53.59819031 C45.15190216 52.99368546 44.54101746 52.3891806 43.91162109 51.76635742 C43.37217865 51.23072678 42.83273621 50.69509613 42.27694702 50.14323425 C40.50490501 48.55674782 40.41553303 48.62147908 38.64990902 50.22983646 Z M82 91 C82 91.66 82 92.32 82 93 C81.34 93 80.68 93 80 93 C80 93.66 80 94.32 80 95 C79.34 95 78.68 95 78 95 C78 95.66 78 96.32 78 97 C77.34 97 76.68 97 76 97 C76 97.66 76 98.32 76 99 C75.34 99 74.68 99 74 99 C74 99.66 74 100.32 74 101 C73.34 101 72.68 101 72 101 C72 101.66 72 102.32 72 103 C71.34 103 70.68 103 70 103 C70 103.66 70 104.32 70 105 C69.34 105 68.68 105 68 105 C68 105.66 68 106.32 68 107 C67.34 107 66.68 107 66 107 C66 107.66 66 108.32 66 109 C65.34 109 64.68 109 64 109 C64 109.66 64 110.32 64 111 C63.34 111 62.68 111 62 111 C62 111.66 62 112.32 62 113 C61.34 113 60.68 113 60 113 C60 113.66 60 114.32 60 115 C59.34 115 58.68 115 58 115 C58 115.66 58 116.32 58 117 C57.34 117 56.68 117 56 117 C56 117.66 56 118.32 56 119 C55.34 119 54.68 119 54 119 C54 119.66 54 120.32 54 121 C53.34 121 52.68 121 52 121 C52 121.66 52 122.32 52 123 C51.34 123 50.68 123 50 123 C50 123.66 50 124.32 50 125 C49.34 125 48.68 125 48 125 C48 125.66 48 126.32 48 127 C47.34 127 46.68 127 46 127 C46 127.66 46 128.32 46 129 C45.34 129 44.68 129 44 129 C44 129.66 44 130.32 44 131 C43.34 131 42.68 131 42 131 C42 131.66 42 132.32 42 133 C41.34 133 40.68 133 40 133 C40 133.66 40 134.32 40 135 C39.34 135 38.68 135 38 135 C38 135.66 38 136.32 38 137 C37.34 137 36.68 137 36 137 C36 137.66 36 138.32 36 139 C35.34 139 34.68 139 34 139 C34 139.66 34 140.32 34 141 C33.34 141 32.68 141 32 141 C32 141.66 32 142.32 32 143 C31.34 143 30.68 143 30 143 C30 143.66 30 144.32 30 145 C29.34 145 28.68 145 28 145 C28 145.66 28 146.32 28 147 C27.34 147 26.68 147 26 147 C26 147.66 26 148.32 26 149 C25.34 149 24.68 149 24 149 C24 149.66 24 150.32 24 151 C23.34 151 22.68 151 22 151 C22 151.66 22 152.32 22 153 C21.34 153 20.68 153 20 153 C20 153.66 20 154.32 20 155 C19.34 155 18.68 155 18 155 C18 155.66 18 156.32 18 157 C17.34 157 16.68 157 16 157 C16 157.66 16 158.32 16 159 C15.34 159 14.68 159 14 159 C14 159.66 14 160.32 14 161 C13.34 161 12.68 161 12 161 C12 161.66 12 162.32 12 163 C11.34 163 10.68 163 10 163 C10 163.66 10 164.32 10 165 C9.34 165 8.68 165 8 165 C8 165.66 8 166.32 8 167 C7.34 167 6.68 167 6 167 C6 167.66 6 168.32 6 169 C5.34 169 4.68 169 4 169 C4 169.66 4 170.32 4 171 C3.34 171 2.68 171 2 171 C3.24239921 175.69350812 5.77007922 177.77517676 9.44140625 180.66796875 C11 182 11 182 12 184 C12.66 184 13.32 184 14 184 C14 184.66 14 185.32 14 186 C14.66 186 15.32 186 16 186 C16 186.66 16 187.32 16 188 C16.66 188 17.32 188 18 188 C18 188.66 18 189.32 18 190 C18.66 190 19.32 190 20 190 C20 190.66 20 191.32 20 192 C20.66 192 21.32 192 22 192 C22 192.66 22 193.32 22 194 C22.66 194 23.32 194 24 194 C24 194.66 24 195.32 24 196 C24.66 196 25.32 196 26 196 C26 196.66 26 197.32 26 198 C26.66 198 27.32 198 28 198 C28 198.66 28 199.32 28 200 C28.66 200 29.32 200 30 200 C30 200.66 30 201.32 30 202 C30.66 202 31.32 202 32 202 C32 202.66 32 203.32 32 204 C32.66 204 33.32 204 34 204 C34 204.66 34 205.32 34 206 C34.66 206 35.32 206 36 206 C36 206.66 36 207.32 36 208 C36.66 208 37.32 208 38 208 C38 208.66 38 209.32 38 210 C38.66 210 39.32 210 40 210 C40 210.66 40 211.32 40 212 C40.66 212 41.32 212 42 212 C42 212.66 42 213.32 42 214 C42.66 214 43.32 214 44 214 C44 214.66 44 215.32 44 216 C44.66 216 45.32 216 46 216 C46 216.66 46 217.32 46 218 C46.66 218 47.32 218 48 218 C48 218.66 48 219.32 48 220 C48.66 220 49.32 220 50 220 C50 220.66 50 221.32 50 222 C50.66 222 51.32 222 52 222 C52 222.66 52 223.32 52 224 C52.66 224 53.32 224 54 224 C54 224.66 54 225.32 54 226 C54.66 226 55.32 226 56 226 C56 226.66 56 227.32 56 228 C56.66 228 57.32 228 58 228 C58 228.66 58 229.32 58 230 C58.66 230 59.32 230 60 230 C60 230.66 60 231.32 60 232 C61.38292019 233.39822971 61.38292019 233.39822971 63.25 234.875 C67.73367118 238.66085473 71.8112604 242.77286612 75.87402344 246.99951172 C78.23595868 249.41642972 79.74443867 250.91481289 83 252 C84.85091848 250.86463224 84.85091848 250.86463224 86.65087891 249.09521484 C87.357547 248.44381531 88.06421509 247.79241577 88.79229736 247.12127686 C92.4377994 243.61848669 96.03106547 240.0713046 99.5859375 236.4765625 C100.36893219 235.68978119 101.15192688 234.90299988 101.95864868 234.09237671 C104.43322766 231.60568365 106.90450839 229.11575341 109.375 226.625 C112.65079927 223.32267604 115.92985174 220.02363303 119.2109375 216.7265625 C120.33899307 215.58605942 120.33899307 215.58605942 121.48983765 214.42251587 C122.18461212 213.72443817 122.8793866 213.02636047 123.59521484 212.30712891 C124.20618011 211.69092682 124.81714539 211.07472473 125.44662476 210.43984985 C127 209 127 209 129 208 C129 207.34 129 206.68 129 206 C129.66 206 130.32 206 131 206 C131 205.34 131 204.68 131 204 C131.66 204 132.32 204 133 204 C133 203.34 133 202.68 133 202 C133.66 202 134.32 202 135 202 C135 201.34 135 200.68 135 200 C135.66 200 136.32 200 137 200 C137 199.34 137 198.68 137 198 C137.66 198 138.32 198 139 198 C139 197.34 139 196.68 139 196 C139.66 196 140.32 196 141 196 C141 195.34 141 194.68 141 194 C141.66 194 142.32 194 143 194 C143 193.34 143 192.68 143 192 C143.66 192 144.32 192 145 192 C145 191.34 145 190.68 145 190 C145.66 190 146.32 190 147 190 C147 189.34 147 188.68 147 188 C147.66 188 148.32 188 149 188 C149 187.34 149 186.68 149 186 C149.66 186 150.32 186 151 186 C151 185.34 151 184.68 151 184 C151.66 184 152.32 184 153 184 C153 183.34 153 182.68 153 182 C153.66 182 154.32 182 155 182 C155 181.34 155 180.68 155 180 C155.66 180 156.32 180 157 180 C157 179.34 157 178.68 157 178 C157.66 178 158.32 178 159 178 C159 177.34 159 176.68 159 176 C159.66 176 160.32 176 161 176 C161 175.34 161 174.68 161 174 C161.66 174 162.32 174 163 174 C161.51865387 168.45959028 157.581514 165.17452071 153.62866211 161.2722168 C152.86919785 160.51070816 152.10973358 159.74919952 151.32725525 158.96461487 C148.81781214 156.45216609 146.29779798 153.95061733 143.77734375 151.44921875 C142.03323637 149.70816867 140.28971886 147.9665275 138.54676819 146.22431946 C134.8953399 142.57749248 131.23905599 138.93563158 127.57885742 135.29760742 C122.87511092 130.62220596 118.18014389 125.93811182 113.48831844 121.25075054 C109.89018 117.65675729 106.28921857 114.06560476 102.68719673 110.47550392 C100.95427872 108.74830223 99.22184093 107.0206186 97.48988152 105.29245567 C95.07651886 102.88592631 92.65979973 100.48282392 90.24194336 98.08081055 C89.51932312 97.35930817 88.79670288 96.63780579 88.05218506 95.8944397 C87.3973967 95.24536148 86.74260834 94.59628326 86.06797791 93.92753601 C85.49629851 93.35883128 84.92461912 92.79012655 84.33561611 92.20418835 C83.17593534 90.88839666 83.17593534 90.88839666 82 91 Z M41.25073242 90.63392639 C31.98599466 90.13826765 25.1150388 90.91605839 17.84672546 97.01918697 C13.76528762 100.83027781 9.92671031 104.8366788 6.10546875 108.90625 C4.41348515 110.63306843 2.71705434 112.35553945 1.01643372 114.07385254 C-3.41392028 118.57436962 -7.7804886 123.13204347 -12.13623047 127.70465088 C-16.60361962 132.3708148 -21.13213376 136.97686064 -25.65429688 141.58984375 C-32.22218833 148.30823437 -38.76903234 155.04586743 -45.26489258 161.83398438 C-45.9519075 162.54882492 -46.63892242 163.26366547 -47.34675598 164.00016785 C-47.96429749 164.64798721 -48.58183899 165.29580658 -49.21809387 165.96325684 C-49.75864316 166.5288607 -50.29919245 167.09446457 -50.85612202 167.67720795 C-52.10901669 168.83460447 -52.10901669 168.83460447 -52 170 C-35.83 170 -19.66 170 -3 170 C-3 169.34 -3 168.68 -3 168 C-2.34 168 -1.68 168 -1 168 C-1 167.34 -1 166.68 -1 166 C-0.34 166 0.32 166 1 166 C1 165.34 1 164.68 1 164 C1.66 164 2.32 164 3 164 C3 163.34 3 162.68 3 162 C3.66 162 4.32 162 5 162 C5 161.34 5 160.68 5 160 C5.66 160 6.32 160 7 160 C7 159.34 7 158.68 7 158 C7.66 158 8.32 158 9 158 C9 157.34 9 156.68 9 156 C9.66 156 10.32 156 11 156 C11 155.34 11 154.68 11 154 C11.66 154 12.32 154 13 154 C13 153.34 13 152.68 13 152 C13.66 152 14.32 152 15 152 C15 151.34 15 150.68 15 150 C15.66 150 16.32 150 17 150 C17 149.34 17 148.68 17 148 C17.66 148 18.32 148 19 148 C19 147.34 19 146.68 19 146 C19.66 146 20.32 146 21 146 C21 145.34 21 144.68 21 144 C21.66 144 22.32 144 23 144 C23 143.34 23 142.68 23 142 C23.66 142 24.32 142 25 142 C25 141.34 25 140.68 25 140 C25.66 140 26.32 140 27 140 C27 139.34 27 138.68 27 138 C27.66 138 28.32 138 29 138 C29 137.34 29 136.68 29 136 C29.66 136 30.32 136 31 136 C31 135.34 31 134.68 31 134 C31.66 134 32.32 134 33 134 C33 133.34 33 132.68 33 132 C33.66 132 34.32 132 35 132 C35 131.34 35 130.68 35 130 C35.66 130 36.32 130 37 130 C37 129.34 37 128.68 37 128 C37.66 128 38.32 128 39 128 C39 127.34 39 126.68 39 126 C39.66 126 40.32 126 41 126 C41 125.34 41 124.68 41 124 C41.66 124 42.32 124 43 124 C43 123.34 43 122.68 43 122 C43.66 122 44.32 122 45 122 C45 121.34 45 120.68 45 120 C45.66 120 46.32 120 47 120 C47 119.34 47 118.68 47 118 C47.66 118 48.32 118 49 118 C49 117.34 49 116.68 49 116 C49.66 116 50.32 116 51 116 C51 115.34 51 114.68 51 114 C51.66 114 52.32 114 53 114 C53 113.34 53 112.68 53 112 C53.66 112 54.32 112 55 112 C55 111.34 55 110.68 55 110 C55.66 110 56.32 110 57 110 C57 109.34 57 108.68 57 108 C57.66 108 58.32 108 59 108 C59 107.34 59 106.68 59 106 C59.66 106 60.32 106 61 106 C61 105.34 61 104.68 61 104 C61.66 104 62.32 104 63 104 C63 103.34 63 102.68 63 102 C63.66 102 64.32 102 65 102 C65 101.34 65 100.68 65 100 C65.66 100 66.32 100 67 100 C67 99.34 67 98.68 67 98 C67.66 98 68.32 98 69 98 C69 97.34 69 96.68 69 96 C69.66 96 70.32 96 71 96 C71 95.34 71 94.68 71 94 C71.66 94 72.32 94 73 94 C73 93.34 73 92.68 73 92 C73.66 91.67 74.32 91.34 75 91 C70.60418198 90.97004632 66.20839119 90.95289332 61.8125 90.9375 C60.60529297 90.92912109 59.39808594 90.92074219 58.15429688 90.91210938 C55.62859455 90.90554911 53.10263395 90.93030924 50.57751465 90.98497009 C47.43932117 91.03499946 44.37805136 90.88794429 41.25073242 90.63392639 Z " fill="#FFFFFF" transform="translate(233,30)"/>
</svg>
