<svg xmlns="http://www.w3.org/2000/svg" xmlns:xlink="http://www.w3.org/1999/xlink" width="192" zoomAndPan="magnify" viewBox="0 0 144 143.999998" height="192" preserveAspectRatio="xMidYMid meet" version="1.0"><defs><clipPath id="679bf14469"><path d="M 43.199219 71 L 98 71 L 98 99.851562 L 43.199219 99.851562 Z M 43.199219 71 " clip-rule="nonzero"/></clipPath><clipPath id="1207642601"><path d="M 46 44.351562 L 100.949219 44.351562 L 100.949219 72 L 46 72 Z M 46 44.351562 " clip-rule="nonzero"/></clipPath></defs><path fill="#ffffff" d="M 27.167969 36.625 L 0.128906 66.679688 L 10.628906 65.863281 C 10.628906 65.863281 9.5 83.28125 17.484375 98.058594 C 25.46875 112.832031 33.140625 117.488281 37.164062 120.820312 C 41.191406 124.152344 54.332031 132.011719 73.886719 132.828125 C 93.441406 133.648438 104.757812 125.847656 104.757812 125.847656 L 98.21875 113.085938 C 98.21875 113.085938 83.128906 121.324219 67.347656 118.367188 C 51.566406 115.410156 47.539062 110.570312 42.699219 107.425781 C 37.792969 104.28125 25.34375 88.5625 24.527344 72.089844 L 29.558594 76.679688 Z M 27.167969 36.625 " fill-opacity="1" fill-rule="nonzero"/><path fill="#ffffff" d="M 116.832031 107.425781 L 143.871094 77.371094 L 133.371094 78.1875 C 133.371094 78.1875 134.5 60.769531 126.515625 45.992188 C 118.53125 31.21875 110.921875 26.5 106.898438 23.167969 C 102.875 19.835938 89.730469 11.976562 70.175781 11.160156 C 50.621094 10.34375 39.242188 18.140625 39.242188 18.140625 L 45.78125 30.964844 C 45.78125 30.964844 60.871094 22.730469 76.652344 25.683594 C 92.433594 28.640625 96.460938 33.417969 101.300781 36.625 C 106.207031 39.769531 118.65625 55.488281 119.472656 71.960938 L 114.441406 67.371094 Z M 116.832031 107.425781 " fill-opacity="1" fill-rule="nonzero"/><g clip-path="url(#679bf14469)"><path fill="#ffffff" d="M 97.828125 81.609375 C 93.921875 92.085938 83.808594 99.5625 71.992188 99.5625 C 60.675781 99.5625 50.933594 92.699219 46.699219 82.925781 L 43.199219 86.121094 L 44.429688 72.125 C 44.429688 72.085938 44.425781 72.039062 44.425781 72 L 44.445312 72 L 44.445312 71.945312 L 58.683594 71.960938 L 53.558594 76.648438 C 55.636719 84.902344 63.101562 91.027344 71.988281 91.027344 C 78.976562 91.027344 85.097656 87.246094 88.410156 81.609375 Z M 97.828125 81.609375 " fill-opacity="1" fill-rule="nonzero"/></g><g clip-path="url(#1207642601)"><path fill="#ffffff" d="M 55.652344 62.246094 C 58.980469 56.699219 65.058594 52.976562 71.992188 52.976562 C 80.855469 52.976562 88.285156 59.066406 90.398438 67.269531 L 85.316406 71.921875 L 91.015625 71.929688 C 91.015625 71.953125 91.023438 71.976562 91.023438 72 L 99.554688 72 C 99.554688 71.984375 99.554688 71.960938 99.554688 71.945312 L 100.796875 57.761719 L 97.25 61.011719 C 92.992188 51.265625 83.277344 44.4375 71.992188 44.4375 C 60.226562 44.4375 50.160156 51.851562 46.207031 62.246094 Z M 55.652344 62.246094 " fill-opacity="1" fill-rule="nonzero"/></g></svg>